# xmcd
# 
# Track frame offsets:
#     150
#     12671
#     24731
#     39126
#     53116
#     67929
#     81178
#     91894
#     104693
#     116046
#     136122
#     149998
#     164981
#     179013
#     193558
#     206977
#     218533
#     231493
#     241920
#     254701
#     268482
#     283125
#     296123
#     305446
#     314272
# 
# Disc length: 4389
# 
# Revision: 1
# Processed by: cddbd v1.5.2PL0 Copyright (c) Steve Scherf et al.
# Submitted via: fre:ac v1.0.17
# 
DISCID=97112319
DTITLE=Django Reinhardt - L'anthologie [CD 1)
DYEAR=2010
DGENRE=Jazz
TTITLE0=Swing 42
TTITLE1=Saint-Louis Blues
TTITLE2=Georgia in My Mind
TTITLE3=Stardust
TTITLE4=Nuages
TTITLE5=Swing Guitar
TTITLE6=Montmartre
TTITLE7=Blue Drag
TTITLE8=Swing 39
TTITLE9=Manoir de Mes Reves
TTITLE10=After You're Gone
TTITLE11=Taj Mahal
TTITLE12=Solitude
TTITLE13=Minor Swing
TTITLE14=Daphne
TTITLE15=Duangologie
TTITLE16=Charleston
TTITLE17=Mystery Pacific
TTITLE18=Christmas Swing
TTITLE19=In The Still Of The Night
TTITLE20=Viper Dream
TTITLE21=Ain'T Misbehavin'
TTITLE22=Rhythm Futur
TTITLE23=Vendredi 13
TTITLE24=Ultrafox
EXTD=YEAR: 2010
EXTT0=
EXTT1=
EXTT2=
EXTT3=
EXTT4=
EXTT5=
EXTT6=
EXTT7=
EXTT8=
EXTT9=
EXTT10=
EXTT11=
EXTT12=
EXTT13=
EXTT14=
EXTT15=
EXTT16=
EXTT17=
EXTT18=
EXTT19=
EXTT20=
EXTT21=
EXTT22=
EXTT23=
EXTT24=
PLAYORDER=
